<svg xmlns="http://www.w3.org/2000/svg" version="1.1" width="300" height="300"><path d="M141.33974596 145L141.33974596 115L72.05771366 75L72.05771366 45L150 0L271.24355653 70L271.24355653 100L253.92304845 90L236.60254038 100L236.60254038 110L227.94228634 115L227.94228634 125L201.96152423 140L184.64101615 130L167.32050808 140L167.32050808 150L158.66025404 155L158.66025404 165L150 170L141.33974596 165L141.33974596 155L132.67949192 150L132.67949192 140L115.35898385 130L98.03847577 140L72.05771366 125L72.05771366 115L63.39745962 110L63.39745962 100L46.07695155 90L28.75644347 100L28.75644347 70L72.05771366 45L72.05771366 75L141.33974596 115L141.33974596 145L150 150L150 110L219.2820323 70L150 30L80.7179677 70L150 110L150 150ZM141.33974596 285L150 290L167.32050808 280L167.32050808 290L150 300L132.67949192 290L132.67949192 280ZM253.92304845 220L262.58330249 215L271.24355653 220L288.56406461 210L288.56406461 220L271.24355653 230ZM37.41669751 215L46.07695155 220L28.75644347 230L11.43593539 220L11.43593539 210L20.09618943 215L28.75644347 220Z" fill="#8A5A19"/><path d="M141.33974596 165L150 170L158.66025404 165L158.66025404 155L167.32050808 150L167.32050808 140L184.64101615 130L201.96152423 140L227.94228634 125L227.94228634 115L236.60254038 110L236.60254038 100L253.92304845 90L271.24355653 100L271.24355653 90L288.56406461 100L288.56406461 130L262.58330249 145L262.58330249 135L210.62177826 165L210.62177826 145L236.60254038 130L236.60254038 120L245.26279442 115L245.26279442 135L262.58330249 125L262.58330249 105L236.60254038 120L236.60254038 130L210.62177826 145L210.62177826 165L175.98076211 185L175.98076211 195L158.66025404 205L158.66025404 175L167.32050808 170L167.32050808 160L175.98076211 155L175.98076211 175L193.30127019 165L193.30127019 145L167.32050808 160L167.32050808 170L158.66025404 175L158.66025404 205L150 210L132.67949192 200L132.67949192 160L124.01923789 155L106.69872981 145L106.69872981 165L124.01923789 175L124.01923789 155L132.67949192 160L132.67949192 200L124.01923789 195L124.01923789 185L98.03847577 170L89.37822174 165L89.37822174 145L63.39745962 130L63.39745962 120L37.41669751 105L37.41669751 125L54.73720558 135L54.73720558 115L63.39745962 120L63.39745962 130L89.37822174 145L89.37822174 165L37.41669751 135L37.41669751 145L11.43593539 130L11.43593539 100L28.75644347 90L28.75644347 100L46.07695155 90L63.39745962 100L63.39745962 110L72.05771366 115L72.05771366 125L98.03847577 140L115.35898385 130L132.67949192 140L132.67949192 150L141.33974596 155ZM141.33974596 245L150 250L158.66025404 245L167.32050808 250L167.32050808 220L219.2820323 190L219.2820323 180L210.62177826 175L219.2820323 170L227.94228634 175L236.60254038 170L236.60254038 190L245.26279442 185L253.92304845 190L253.92304845 210L262.58330249 205L262.58330249 185L271.24355653 180L271.24355653 170L288.56406461 180L288.56406461 210L271.24355653 220L262.58330249 215L167.32050808 270L167.32050808 280L150 290L132.67949192 280L132.67949192 270L37.41669751 215L28.75644347 220L20.09618943 215L11.43593539 210L11.43593539 180L28.75644347 170L28.75644347 180L37.41669751 185L37.41669751 205L46.07695155 210L46.07695155 190L54.73720558 185L63.39745962 190L63.39745962 170L72.05771366 175L80.7179677 170L89.37822174 175L80.7179677 180L80.7179677 190L132.67949192 220L132.67949192 250Z" fill="#80A786"/><path d="M141.33974596 205L150 210L167.32050808 200L167.32050808 250L158.66025404 245L150 250L141.33974596 245L132.67949192 250L132.67949192 200ZM141.33974596 95L98.03847577 70L150 40L201.96152423 70L150 100ZM236.60254038 150L253.92304845 160L262.58330249 155L262.58330249 145L271.24355653 140L271.24355653 180L262.58330249 185L262.58330249 205L253.92304845 210L253.92304845 190L245.26279442 185L236.60254038 190ZM54.73720558 155L63.39745962 150L63.39745962 190L54.73720558 185L46.07695155 190L46.07695155 210L37.41669751 205L37.41669751 185L28.75644347 180L28.75644347 140L37.41669751 145L37.41669751 155L46.07695155 160Z" fill="#51795E"/><path d="M141.33974596 105L80.7179677 70L150 30L219.2820323 70L150 110L150 100L201.96152423 70L150 40L98.03847577 70L150 100L150 110ZM167.32050808 200L175.98076211 205L184.64101615 200L184.64101615 190L193.30127019 185L193.30127019 175L219.2820323 160L219.2820323 170L210.62177826 175L219.2820323 180L219.2820323 190L167.32050808 220ZM124.01923789 205L132.67949192 200L132.67949192 220L80.7179677 190L80.7179677 180L89.37822174 175L80.7179677 170L80.7179677 160L98.03847577 170L106.69872981 175L106.69872981 185L115.35898385 190L115.35898385 200Z" fill="#A67901"/><path d="M167.32050808 200L175.98076211 195L175.98076211 185L193.30127019 175L193.30127019 185L184.64101615 190L184.64101615 200L175.98076211 205ZM236.60254038 150L262.58330249 135L262.58330249 155L253.92304845 160ZM124.01923789 195L132.67949192 200L124.01923789 205L115.35898385 200L115.35898385 190L106.69872981 185L106.69872981 175L124.01923789 185ZM54.73720558 145L63.39745962 150L46.07695155 160L37.41669751 155L37.41669751 135Z" fill="#ffffff"/><path d="M175.98076211 155L193.30127019 145L193.30127019 165L175.98076211 175ZM245.26279442 115L262.58330249 105L262.58330249 125L245.26279442 135ZM115.35898385 150L124.01923789 155L124.01923789 175L106.69872981 165L106.69872981 145ZM46.07695155 110L54.73720558 115L54.73720558 135L37.41669751 125L37.41669751 105Z" fill="#79C790"/><path d="M141.33974596 145L150 150L150 170L141.33974596 165L141.33974596 155L132.67949192 150L132.67949192 140L115.35898385 130L98.03847577 140L72.05771366 125L72.05771366 115L63.39745962 110L63.39745962 100L46.07695155 90L28.75644347 100L28.75644347 70L150 140L150 150ZM141.33974596 175L150 180L150 250L132.67949192 240L132.67949192 200L124.01923789 195L124.01923789 205L132.67949192 210L132.67949192 220L80.7179677 190L80.7179677 180L115.35898385 200L115.35898385 190L89.37822174 175L80.7179677 170L80.7179677 160L54.73720558 145L54.73720558 155L46.07695155 150L46.07695155 190L54.73720558 195L54.73720558 205L63.39745962 210L63.39745962 220L115.35898385 250L115.35898385 240L124.01923789 245L124.01923789 235L141.33974596 245L132.67949192 250L150 260L150 300L132.67949192 290L132.67949192 270L37.41669751 215L37.41669751 185L28.75644347 180L28.75644347 140L11.43593539 130L11.43593539 100L28.75644347 110L28.75644347 100L37.41669751 105L37.41669751 95L54.73720558 105L54.73720558 115L63.39745962 120L63.39745962 130L98.03847577 150L98.03847577 140L106.69872981 145L106.69872981 135L124.01923789 145L124.01923789 155L132.67949192 160L132.67949192 170ZM158.66025404 155L167.32050808 160L167.32050808 170L158.66025404 165ZM167.32050808 140L175.98076211 145L175.98076211 155L167.32050808 150ZM167.32050808 200L175.98076211 195L175.98076211 205ZM227.94228634 175L236.60254038 180L236.60254038 150L245.26279442 145L245.26279442 155L253.92304845 150L253.92304845 190L245.26279442 185L236.60254038 190L227.94228634 185ZM227.94228634 205L236.60254038 210L236.60254038 220L227.94228634 215ZM227.94228634 115L236.60254038 120L236.60254038 130L227.94228634 125ZM236.60254038 190L245.26279442 195L245.26279442 205L236.60254038 200ZM236.60254038 100L245.26279442 105L245.26279442 115L236.60254038 110ZM253.92304845 220L262.58330249 215L262.58330249 185L271.24355653 190L271.24355653 230ZM20.09618943 185L28.75644347 190L28.75644347 230L11.43593539 220L11.43593539 180Z" fill="rgba(0,0,0,0.15)"/><path d="M150 140L271.24355653 70L271.24355653 100L253.92304845 90L236.60254038 100L236.60254038 110L227.94228634 115L227.94228634 125L201.96152423 140L184.64101615 130L167.32050808 140L167.32050808 150L158.66025404 155L158.66025404 165L150 170ZM150 180L167.32050808 170L167.32050808 160L175.98076211 155L175.98076211 145L193.30127019 135L193.30127019 145L201.96152423 140L201.96152423 150L236.60254038 130L236.60254038 120L245.26279442 115L245.26279442 105L262.58330249 95L262.58330249 105L271.24355653 100L271.24355653 110L288.56406461 100L288.56406461 130L271.24355653 140L271.24355653 180L262.58330249 185L262.58330249 215L167.32050808 270L167.32050808 290L150 300L150 260L167.32050808 250L158.66025404 245L175.98076211 235L175.98076211 245L184.64101615 240L184.64101615 250L236.60254038 220L236.60254038 210L245.26279442 205L245.26279442 195L253.92304845 190L253.92304845 150L245.26279442 155L245.26279442 145L219.2820323 160L219.2820323 170L184.64101615 190L184.64101615 200L219.2820323 180L219.2820323 190L167.32050808 220L167.32050808 210L175.98076211 205L175.98076211 195L167.32050808 200L167.32050808 240L150 250ZM271.24355653 190L288.56406461 180L288.56406461 220L271.24355653 230ZM132.67949192 160L141.33974596 155L141.33974596 165L132.67949192 170ZM124.01923789 145L132.67949192 140L132.67949192 150L124.01923789 155ZM124.01923789 195L132.67949192 200L124.01923789 205ZM63.39745962 180L72.05771366 175L72.05771366 185L63.39745962 190L54.73720558 185L46.07695155 190L46.07695155 150L54.73720558 155L54.73720558 145L63.39745962 150ZM63.39745962 210L72.05771366 205L72.05771366 215L63.39745962 220ZM63.39745962 120L72.05771366 115L72.05771366 125L63.39745962 130ZM54.73720558 195L63.39745962 190L63.39745962 200L54.73720558 205ZM54.73720558 105L63.39745962 100L63.39745962 110L54.73720558 115ZM37.41669751 215L46.07695155 220L28.75644347 230L28.75644347 190L37.41669751 185Z" fill="rgba(0,0,0,0.4)"/></svg>